<svg width="435" height="259" viewBox="0 0 435 259" fill="none" xmlns="http://www.w3.org/2000/svg">
<path d="M244.948 79.6414C189.629 84.4813 145.966 134.171 132.422 158.346C149.958 179.801 201.596 221.263 256.915 216.423C312.235 211.583 354.152 161.936 369.172 137.633C350.159 116.306 300.268 74.8016 244.948 79.6414Z" fill="#170533"/>
<path d="M237.694 73.5545C182.375 78.3944 138.712 128.084 125.168 152.259C142.704 173.714 194.342 215.176 249.661 210.336C304.981 205.496 346.898 155.85 361.918 131.546C342.906 110.219 293.014 68.7147 237.694 73.5545Z" fill="#F88035"/>
<ellipse cx="243.567" cy="142.092" rx="58.0859" ry="58.4296" transform="rotate(-5 243.567 142.092)" fill="#F9EFE0"/>
<ellipse cx="243.531" cy="141.754" rx="34.714" ry="34.714" transform="rotate(-5 243.531 141.754)" fill="#8039F1"/>
<ellipse cx="243.537" cy="141.749" rx="17.5289" ry="17.5289" transform="rotate(-5 243.537 141.749)" fill="#170533"/>
<path d="M251.506 132.051C253.133 134.297 255.938 140.935 254.242 143.118C254.069 143.34 253.742 143.309 253.538 143.115C252.388 142.022 251.515 141.275 250.794 140.753C246.383 137.565 239.671 134.058 244.078 130.864C246.457 129.141 249.782 129.672 251.506 132.051Z" fill="#F9EFE0"/>
<g clip-path="url(#clip0_1587_2582)">
<path d="M251.961 203.215C339.708 195.538 337.668 172.217 334.747 138.837C339.452 192.612 363.93 193.419 429.283 187.701C351.773 194.483 340.908 209.256 344.509 250.411C340.908 209.256 325.54 196.778 251.961 203.215Z" fill="#8039F1" stroke="#F9EFE0" stroke-width="2" stroke-linejoin="round"/>
</g>
<g clip-path="url(#clip1_1587_2582)">
<path d="M7.50081 88.596C144.544 100.586 147.732 64.1471 152.295 11.9898C144.944 96.0131 182.374 103.895 284.443 112.825C163.388 102.234 142.669 122.02 137.043 186.324C142.669 122.02 122.418 98.6499 7.50081 88.596Z" fill="#170533" stroke="#F88035" stroke-width="2" stroke-linejoin="round"/>
</g>
<defs>
<clipPath id="clip0_1587_2582">
<rect width="178" height="112" fill="white" transform="translate(247 146.514) rotate(-5)"/>
</clipPath>
<clipPath id="clip1_1587_2582">
<rect width="278" height="175" fill="white" transform="translate(15.252) rotate(5)"/>
</clipPath>
</defs>
</svg>
