<svg width="68" height="40" viewBox="0 0 68 40" fill="none" xmlns="http://www.w3.org/2000/svg">
<path d="M34.9032 1.86035C19.4779 1.86035 6.19259 14.5534 1.85938 20.9152C6.19259 27.2769 19.4779 40.0004 34.9032 40.0004C50.3285 40.0004 63.1296 27.2769 67.8743 20.9152C63.1296 14.5534 50.3285 1.86035 34.9032 1.86035Z" fill="#170533"/>
<path d="M33.0438 0C17.6185 0 4.33322 12.6931 0 19.0548C4.33322 25.4165 17.6185 38.14 33.0438 38.14C48.4691 38.14 61.2702 25.4165 66.015 19.0548C61.2702 12.6931 48.4691 0 33.0438 0Z" fill="#F88035"/>
<ellipse cx="33.01" cy="19.1084" rx="16.135" ry="16.2304" fill="#F9EFE0"/>
<ellipse cx="33.008" cy="19.0139" rx="9.64278" ry="9.64279" fill="#8039F1"/>
<ellipse cx="33.0098" cy="19.0127" rx="4.86913" ry="4.86913" fill="#170533"/>
<path d="M35.4502 16.5213C35.8462 17.1823 36.4617 19.0871 35.9394 19.6502C35.8863 19.7075 35.7965 19.6909 35.7448 19.6323C35.453 19.302 35.2294 19.074 35.0425 18.9122C33.8991 17.9232 32.1267 16.7902 33.4236 16.0132C34.1235 15.5939 35.0309 15.8214 35.4502 16.5213Z" fill="#F9EFE0"/>
</svg>
